<svg xmlns="http://www.w3.org/2000/svg" viewBox="0 0 200 200" width="200" height="200" role="img" aria-label="Win Time">
  <title>Win Time 80 — version blanc et noir</title>

  <!-- Corps (swoosh) -->
  <path fill="#FFFFFF" d="M 128,12 C 133,19 140,26 145,34 C 151,45 157,57 161,69 C 164,77 165,86 165,97 C 165,107 164,114 162,122 C 159,132 154,142 148,152 C 143,160 137,168 131,173 C 136,167 140,159 142,148 C 143,140 143,136 142,126 C 141,117 138,109 133,101 C 127,93 118,86 108,80 C 99,75 89,70 80,67 C 100,68 120,74 134,80 C 140,83 144,85.5 146.5,87.5 C 148,82 148,74 147.5,66 C 146,55 143,45 139,36 C 136,29 132,20 128,12 Z"/>

  <!-- Tete -->
  <circle cx="133.1" cy="65.1" r="10.5" fill="#FFFFFF"/>

  <!-- Anneau exterieur (2 segments, interrompu sous le bouton et le tiret) -->
  <path d="M 31.36,125.45 A 51.3,51.3 0 1 0 75.55,83.88" fill="none" stroke="#3D3D3C" stroke-width="4" stroke-linecap="round"/>
  <path d="M 51.29,93.56 A 51.3,51.3 0 0 0 38.06,108.00" fill="none" stroke="#3D3D3C" stroke-width="4" stroke-linecap="round"/>

  <!-- Bouton (couronne) -->
  <g transform="rotate(-25 59.5 84)">
    <rect x="46" y="75.5" width="27" height="17" rx="4" fill="#3D3D3C"/>
  </g>

  <!-- Tiret -->
  <g transform="rotate(106 35.5 117)">
    <rect x="29" y="112" width="13" height="10" rx="5" fill="#3D3D3C"/>
  </g>

  <!-- Anneau du cadran -->
  <circle cx="83.0" cy="136.0" r="38.7" fill="none" stroke="#FFFFFF" stroke-width="6.4"/>

  <!-- Graduations -->
  <g stroke="#FFFFFF" stroke-width="3.1" stroke-linecap="round">
    <line x1="103.13" y1="126.70" x2="109.71" y2="124.02"/>
    <line x1="91.09" y1="114.49" x2="93.87" y2="107.95"/>
    <line x1="72.68" y1="114.86" x2="69.65" y2="108.44"/>
    <line x1="61.13" y1="127.58" x2="54.45" y2="125.17"/>
    <line x1="62.51" y1="145.90" x2="56.26" y2="149.28"/>
    <line x1="74.09" y1="156.15" x2="71.50" y2="162.76"/>
    <line x1="91.63" y1="155.67" x2="94.57" y2="162.13"/>
    <line x1="103.46" y1="142.86" x2="110.13" y2="145.28"/>
  </g>

  <!-- Point central -->
  <circle cx="83.3" cy="134.8" r="4.7" fill="#FFFFFF"/>
</svg>
